<?xml version="1.0" standalone="no"?>
<!DOCTYPE svg PUBLIC "-//W3C//DTD SVG 20010904//EN"
 "http://www.w3.org/TR/2001/REC-SVG-20010904/DTD/svg10.dtd">
<svg version="1.0" xmlns="http://www.w3.org/2000/svg"
 width="260.000000pt" height="260.000000pt" viewBox="0 0 260.000000 260.000000"
 preserveAspectRatio="xMidYMid meet">
<metadata>
Created by potrace 1.11, written by Peter Selinger 2001-2013
</metadata>
<g transform="translate(0.000000,260.000000) scale(0.100000,-0.100000)"
fill="#000000" stroke="none">
<path d="M2257 2289 c-9 -6 -15 -14 -12 -18 8 -13 55 0 55 15 0 16 -18 18 -43
3z"/>
<path d="M2220 2193 c-8 -3 -27 -16 -42 -29 -27 -22 -27 -23 -7 -29 16 -5 27
0 45 21 20 25 31 46 22 43 -2 0 -10 -3 -18 -6z"/>
<path d="M2110 2051 c0 -5 -9 -11 -20 -14 -23 -6 -27 -37 -5 -37 15 0 65 42
65 55 0 3 -9 5 -20 5 -11 0 -20 -4 -20 -9z"/>
<path d="M2048 1913 c7 -3 16 -2 19 1 4 3 -2 6 -13 5 -11 0 -14 -3 -6 -6z"/>
<path d="M2003 1897 c-26 -11 -29 -22 -10 -30 19 -7 40 8 35 25 -2 12 -8 13
-25 5z"/>
<path d="M2000 1800 c0 -7 -2 -11 -5 -8 -3 3 -22 -1 -43 -9 -20 -7 -45 -16
-54 -20 -28 -9 -23 -43 7 -43 25 0 113 76 101 87 -3 4 -6 0 -6 -7z"/>
<path d="M1813 1626 c-27 -13 -28 -22 -9 -42 21 -21 44 -17 48 8 2 12 14 28
28 35 25 13 25 13 -10 12 -19 -1 -45 -6 -57 -13z"/>
<path d="M1770 1500 c0 -5 -18 -10 -39 -10 -50 0 -56 -17 -19 -53 28 -27 30
-28 43 -10 8 10 15 22 15 26 0 12 27 37 39 37 5 0 13 5 16 10 4 6 -7 10 -24
10 -17 0 -31 -4 -31 -10z"/>
<path d="M1690 1350 c0 -5 -24 -10 -54 -10 -49 0 -54 -2 -58 -24 -4 -17 -1
-23 9 -19 7 3 13 0 13 -6 0 -6 12 -11 28 -11 19 0 33 9 47 30 11 16 28 30 38
30 9 0 17 5 17 10 0 6 -9 10 -20 10 -11 0 -20 -4 -20 -10z"/>
<path d="M193 1266 c-10 -11 -9 -16 5 -21 16 -6 16 -7 0 -16 -14 -8 -18 -24
-18 -78 0 -78 20 -112 62 -104 15 3 29 -2 37 -11 12 -14 7 -16 -44 -16 l-57 0
6 -27 c4 -16 11 -46 17 -68 5 -22 12 -65 15 -95 2 -30 9 -64 14 -75 5 -11 12
-46 15 -77 5 -41 11 -58 21 -58 8 0 14 6 14 14 0 9 7 12 18 9 12 -3 31 8 53
30 28 28 41 34 62 30 19 -4 27 -1 27 8 0 17 45 39 77 39 13 0 23 5 23 10 0 6
-4 10 -10 10 -5 0 -10 9 -10 20 0 11 -4 20 -10 20 -5 0 -10 6 -10 13 0 7 -9
23 -20 35 -11 12 -20 24 -20 28 0 4 -11 22 -25 40 -14 18 -25 36 -25 41 0 5
-9 15 -20 23 -11 8 -20 22 -20 32 0 10 -4 18 -10 18 -5 0 -10 5 -10 10 0 6 -9
20 -20 32 -11 12 -20 28 -20 35 0 7 -4 13 -8 13 -5 0 -17 18 -27 40 -10 22
-24 40 -32 40 -8 0 -11 5 -7 11 6 11 -14 59 -25 59 -3 -1 -11 -7 -18 -14z m54
-292 c-3 -3 -12 -4 -19 -1 -8 3 -5 6 6 6 11 1 17 -2 13 -5z m79 -79 c14 -14
21 -25 16 -25 -5 0 -15 7 -22 15 -7 8 -24 15 -39 16 -14 0 -35 4 -46 9 -15 7
-10 9 23 9 33 1 49 -5 68 -24z m-72 -50 c-4 -8 -8 -15 -10 -15 -2 0 -4 7 -4
15 0 8 4 15 10 15 5 0 7 -7 4 -15z m56 -45 c0 -5 -4 -10 -10 -10 -5 0 -10 5
-10 10 0 6 5 10 10 10 6 0 10 -4 10 -10z m110 -61 c0 -11 -27 -12 -34 0 -3 4
-3 11 0 14 8 8 34 -3 34 -14z m-50 -4 c0 -8 -9 -15 -20 -15 -17 0 -19 2 -8 15
17 19 28 19 28 0z"/>
<path d="M1565 1190 c-22 -4 -43 -6 -46 -4 -3 1 -12 -6 -19 -17 -8 -10 -25
-19 -37 -19 -13 0 -23 -4 -23 -10 0 -5 9 -10 20 -10 12 0 32 -7 45 -16 28 -18
55 -13 55 12 0 9 14 29 31 45 17 16 27 28 23 28 -5 -1 -27 -5 -49 -9z"/>
<path d="M1330 1140 c0 -5 -5 -10 -11 -10 -16 0 -39 -26 -39 -44 0 -9 -4 -16
-10 -16 -5 0 -10 -5 -10 -10 0 -6 -13 -24 -30 -42 -16 -17 -30 -35 -30 -40 0
-5 -11 -20 -25 -34 -14 -14 -25 -28 -25 -32 0 -4 -22 -31 -50 -60 -27 -29 -50
-57 -50 -62 0 -5 -14 -25 -31 -43 -28 -31 -31 -41 -31 -98 l0 -64 31 -3 c34
-4 36 0 20 29 -8 17 -6 24 10 38 12 10 21 22 21 27 0 16 54 64 72 64 14 0 18
8 18 41 0 34 6 46 40 79 22 21 49 42 60 45 16 5 20 15 20 48 1 38 5 45 45 76
45 33 56 62 39 105 -7 17 -34 22 -34 6z m-70 -170 c0 -5 -6 -10 -14 -10 -8 0
-18 5 -21 10 -3 6 3 10 14 10 12 0 21 -4 21 -10z m-150 -190 c0 -5 -4 -10 -10
-10 -5 0 -10 5 -10 10 0 6 5 10 10 10 6 0 10 -4 10 -10z"/>
<path d="M1485 1034 c-22 -8 -52 -16 -67 -16 -16 -1 -28 -5 -28 -10 0 -4 -11
-8 -24 -8 -14 0 -28 -4 -31 -10 -3 -5 2 -10 13 -10 10 0 27 -9 37 -20 22 -24
65 -27 65 -4 0 18 15 34 52 53 15 8 29 20 32 27 6 17 2 17 -49 -2z"/>
<path d="M0 910 c0 -29 4 -40 15 -40 8 0 15 7 15 15 0 23 15 18 30 -10 7 -14
19 -25 27 -25 7 0 13 -4 13 -10 0 -5 9 -10 20 -10 11 0 20 5 20 11 0 13 -56
70 -84 84 -53 28 -56 27 -56 -15z"/>
<path d="M670 935 c0 -8 5 -15 10 -15 6 0 10 7 10 15 0 8 -4 15 -10 15 -5 0
-10 -7 -10 -15z"/>
<path d="M565 910 c3 -5 10 -10 16 -10 5 0 9 5 9 10 0 6 -7 10 -16 10 -8 0
-12 -4 -9 -10z"/>
<path d="M618 893 c7 -3 16 -2 19 1 4 3 -2 6 -13 5 -11 0 -14 -3 -6 -6z"/>
<path d="M1315 858 c-22 -6 -48 -14 -57 -19 -10 -5 -27 -9 -38 -9 -13 0 -20
-7 -20 -20 0 -11 5 -20 10 -20 6 0 10 5 10 10 0 6 9 10 20 10 11 0 20 -4 20
-10 0 -5 18 -10 40 -10 33 0 47 7 75 35 19 19 35 37 35 40 0 7 -49 4 -95 -7z"/>
<path d="M10 840 c0 -5 5 -10 10 -10 6 0 10 5 10 10 0 6 -4 10 -10 10 -5 0
-10 -4 -10 -10z"/>
<path d="M181 804 c0 -11 3 -14 6 -6 3 7 2 16 -1 19 -3 4 -6 -2 -5 -13z"/>
<path d="M540 726 c0 -8 -6 -17 -12 -19 -8 -4 -7 -6 3 -6 19 -1 33 25 19 34
-6 4 -10 0 -10 -9z"/>
<path d="M480 715 c0 -8 5 -15 10 -15 6 0 10 7 10 15 0 8 -4 15 -10 15 -5 0
-10 -7 -10 -15z"/>
<path d="M1270 709 c-19 -4 -47 -11 -62 -14 -14 -4 -48 -17 -75 -30 l-48 -24
48 -11 c26 -7 50 -16 53 -21 3 -5 16 -9 30 -9 19 0 24 -5 24 -26 0 -32 -34
-64 -66 -64 -13 0 -33 -4 -46 -9 -13 -5 -44 -15 -70 -22 -27 -8 -48 -17 -48
-21 0 -4 -9 -8 -21 -8 -18 0 -49 -21 -49 -33 0 -3 21 -8 48 -11 26 -4 62 -12
80 -18 28 -8 37 -7 53 8 19 17 20 17 35 -4 8 -12 24 -22 35 -22 22 0 57 -16
74 -34 36 -39 67 -91 72 -122 4 -24 13 -39 29 -46 13 -6 24 -17 24 -25 0 -7 5
-13 10 -13 6 0 10 -7 10 -15 0 -9 11 -27 25 -41 19 -18 24 -31 19 -50 l-6 -24
100 0 101 0 6 33 c12 61 -12 117 -68 164 -22 17 -144 46 -178 41 -26 -4 -33 0
-49 31 -30 59 -85 115 -136 141 -27 14 -50 28 -52 33 -2 4 -10 7 -18 7 -19 0
-18 16 2 24 21 8 20 8 38 -10 14 -14 18 -14 31 0 8 8 15 24 15 34 0 11 9 41
20 67 11 26 20 57 20 70 0 13 11 35 25 49 38 39 34 42 -35 25z m-150 -289 c0
-5 -7 -10 -15 -10 -8 0 -15 5 -15 10 0 6 7 10 15 10 8 0 15 -4 15 -10z m370
-250 c0 -13 7 -20 20 -20 12 0 30 -9 42 -20 l22 -20 -21 0 c-12 0 -23 6 -26
13 -3 10 -9 10 -26 -1 -28 -16 -31 -15 -31 7 0 11 -5 21 -12 23 -16 6 -2 38
17 38 8 0 15 -9 15 -20z"/>
<path d="M60 680 c-8 -5 -25 -7 -37 -3 -25 6 -30 -6 -11 -25 20 -20 55 -14 61
10 7 27 6 29 -13 18z"/>
<path d="M390 630 c0 -5 7 -10 16 -10 8 0 12 5 9 10 -3 6 -10 10 -16 10 -5 0
-9 -4 -9 -10z"/>
<path d="M670 630 c0 -5 -5 -10 -11 -10 -7 0 -19 -8 -28 -18 -9 -11 -23 -21
-31 -25 -10 -4 -8 -6 7 -6 12 -1 29 7 38 16 14 14 22 15 46 6 21 -8 38 -8 62
-1 17 6 38 13 46 15 11 3 10 7 -5 18 -22 16 -124 20 -124 5z"/>
<path d="M299 613 c-20 -5 -32 -40 -17 -49 6 -4 13 -2 17 3 3 6 23 16 44 24
20 7 37 17 37 21 0 8 -52 9 -81 1z"/>
<path d="M397 580 c-10 -10 -38 -21 -62 -24 -31 -5 -44 -12 -48 -27 -3 -12 0
-22 8 -25 8 -3 11 -12 8 -20 -3 -8 1 -14 11 -14 9 0 16 8 16 20 0 11 12 27 28
37 15 10 36 26 46 35 11 10 23 18 28 18 4 0 8 5 8 10 0 16 -23 11 -43 -10z"/>
<path d="M773 512 c-51 -2 -63 -6 -68 -22 -4 -11 -13 -20 -21 -20 -8 0 -14 -4
-14 -10 0 -5 -11 -10 -25 -10 -14 0 -25 -4 -25 -10 0 -5 6 -10 14 -10 8 0 17
-6 20 -12 5 -10 7 -10 12 0 3 6 19 12 35 12 16 0 29 5 29 10 0 6 19 10 41 10
33 0 47 -6 65 -27 13 -16 24 -36 24 -45 0 -9 5 -20 10 -23 6 -3 10 -20 10 -36
0 -34 58 -99 88 -99 13 0 24 -12 33 -32 7 -18 15 -35 18 -38 13 -11 31 -78 31
-113 l0 -36 70 0 c78 0 78 0 29 71 -11 14 -19 33 -19 42 0 9 -4 16 -10 16 -5
0 -10 9 -10 21 0 19 -16 58 -29 69 -3 3 -12 16 -20 30 -10 17 -10 25 -2 28 25
8 9 22 -27 22 -26 0 -41 -6 -50 -20 -14 -23 -28 -25 -46 -7 -25 24 -36 56 -36
102 0 39 -5 52 -30 75 -16 15 -30 31 -30 34 0 12 78 6 83 -6 5 -15 38 0 44 19
5 13 -92 20 -194 15z"/>
<path d="M520 440 c0 -5 -9 -10 -20 -10 -11 0 -20 -4 -20 -10 0 -5 5 -10 12
-10 6 0 1 -9 -12 -20 -25 -22 -40 -26 -40 -10 0 6 -5 10 -11 10 -5 0 -8 -4 -5
-9 12 -18 -5 -38 -28 -34 -13 3 -30 -2 -39 -11 -22 -22 -42 -20 -54 7 -7 15
-7 27 1 39 12 20 3 33 -19 25 -9 -4 -15 -19 -15 -36 0 -35 -18 -51 -34 -29 -9
12 -15 13 -31 4 -11 -6 -21 -11 -23 -12 -1 -1 0 -8 3 -17 4 -10 18 -15 40 -14
19 1 38 -2 42 -7 4 -4 -5 -42 -19 -84 -15 -42 -29 -107 -33 -144 l-6 -68 94 0
94 0 -5 49 c-6 71 40 214 84 258 18 18 39 30 47 28 7 -3 24 4 38 16 l24 22
-25 -5 c-14 -3 -33 -9 -42 -13 -27 -11 -23 21 7 51 20 20 28 23 45 14 14 -7
20 -7 20 0 0 5 -7 10 -15 10 -8 0 -15 5 -15 10 0 6 -9 10 -20 10 -11 0 -20 -4
-20 -10z m-115 -130 c3 -5 1 -10 -4 -10 -6 0 -11 5 -11 10 0 6 2 10 4 10 3 0
8 -4 11 -10z"/>
<path d="M820 335 c0 -60 25 -114 53 -115 10 0 9 27 -3 50 -5 11 -14 29 -20
40 -5 11 -10 31 -10 45 0 14 -4 25 -10 25 -5 0 -10 -20 -10 -45z"/>
<path d="M86 311 c-4 -5 0 -12 6 -14 10 -4 9 -8 -2 -16 -8 -5 -11 -14 -6 -18
5 -4 11 -2 13 5 5 12 43 18 43 6 0 -12 -29 -34 -45 -34 -9 0 -25 9 -37 20 -12
11 -24 17 -27 14 -3 -4 0 -9 7 -11 20 -7 14 -21 -10 -25 -14 -2 -24 -11 -26
-23 -2 -11 0 -16 5 -10 4 6 30 12 58 14 31 2 55 10 65 20 21 24 60 45 60 31 0
-16 27 -12 34 6 9 23 7 31 -4 14 -8 -13 -12 -13 -32 -1 -15 9 -23 10 -26 3 -2
-6 -12 -2 -23 9 -20 20 -44 25 -53 10z"/>
<path d="M160 250 c0 -5 7 -10 15 -10 8 0 15 5 15 10 0 6 -7 10 -15 10 -8 0
-15 -4 -15 -10z"/>
<path d="M98 133 c7 -3 16 -2 19 1 4 3 -2 6 -13 5 -11 0 -14 -3 -6 -6z"/>
<path d="M540 63 c-16 -17 -20 -28 -12 -31 7 -2 12 -10 12 -18 0 -11 17 -14
75 -14 l75 0 -22 25 c-12 14 -27 25 -33 25 -7 0 -20 9 -30 20 -23 26 -35 25
-65 -7z"/>
</g>
</svg>
