<svg width="256" height="256" viewBox="0 0 256 256" fill="none" xmlns="http://www.w3.org/2000/svg">
<path fill-rule="evenodd" clip-rule="evenodd" d="M143.676 73.5137C153.811 66.2163 165.234 62.4595 175.036 60.9166C180.892 59.9951 185.722 64.848 185.722 70.7755C185.722 76.703 180.872 81.4666 175.082 82.7393C168.924 84.0931 162.149 86.6635 156.218 90.9335C147.056 97.5299 139.214 108.618 139.214 128.016C139.214 154.411 127.976 171.943 113.287 182.519C103.152 189.816 91.7294 193.573 81.9264 195.116C76.071 196.037 71.2407 191.184 71.2407 185.257C71.2407 179.329 76.0914 174.566 81.8806 173.293C88.0389 171.939 94.8144 169.369 100.745 165.099C109.907 158.503 117.749 147.415 117.749 128.016C117.749 101.622 128.987 84.0896 143.676 73.5137Z" fill="black"/>
<path fill-rule="evenodd" clip-rule="evenodd" d="M86.4349 41.4709C96.5702 34.1734 107.993 30.4167 117.796 28.8738C123.651 27.9522 128.481 32.8052 128.481 38.7326C128.481 44.6601 123.631 49.4238 117.842 50.6965C111.683 52.0503 104.908 54.6206 98.9771 58.8907C89.8156 65.487 81.9734 76.5751 81.9734 95.9734C81.9734 122.368 70.7354 139.9 56.0466 150.476C45.9113 157.773 34.4887 161.53 24.6857 163.073C18.8303 163.995 14 159.142 14 153.214C14 147.287 18.8506 142.523 24.6399 141.25C30.7981 139.896 37.5737 137.326 43.5043 133.056C52.6659 126.46 60.5081 115.372 60.5081 95.9734C60.5081 69.5791 71.7461 52.0468 86.4349 41.4709Z" fill="black"/>
<path fill-rule="evenodd" clip-rule="evenodd" d="M200.916 104.712C211.052 97.4142 222.474 93.6574 232.277 92.1145C238.133 91.193 242.963 96.0459 242.963 101.973C242.963 107.901 238.112 112.665 232.323 113.937C226.165 115.291 219.389 117.861 213.459 122.131C204.297 128.728 196.455 139.816 196.455 159.214C196.455 185.608 185.217 203.141 170.528 213.717C160.393 221.014 148.97 224.771 139.167 226.314C133.312 227.235 128.481 222.382 128.481 216.455C128.481 210.527 133.332 205.764 139.121 204.491C145.28 203.137 152.055 200.567 157.986 196.297C167.147 189.7 174.99 178.612 174.99 159.214C174.99 132.82 186.228 115.288 200.916 104.712Z" fill="black"/>
</svg>
